# xmcd
#
# Track frame offsets:
#	150
#	13321
#	26106
#	35484
#	50131
#	60095
#	68730
#	77590
#	87194
#	97482
#	107170
#	118609
#	131433
#	142929
#	151478
#	166979
#	178326
#	191893
#	205018
#	217801
#
# Disc length: 3080 seconds
#
# Revision: 1
# Processed by: cddbd v1.5.2PL0 Copyright (c) Steve Scherf et al.
# Submitted via: audiograbber 1.83.01
#
DISCID=1c0c0614
DTITLE=Bobby Darin - The Collection
DYEAR=1900
DGENRE=Rock
TTITLE0=Fly me to the Moon
TTITLE1=Moon River
TTITLE2=Call me irresponsible
TTITLE3=Hello Dolly
TTITLE4=Can't get used to losing you
TTITLE5=I got Rhythm
TTITLE6=From a Jack to a King
TTITLE7=On the street where you live
TTITLE8=Eighteen yellow roses
TTITLE9=Rhythm of the rain
TTITLE10=Standing on the corner
TTITLE11=You made me love you
TTITLE12=Somewhere
TTITLE13=If I had a Hammer
TTITLE14=Mack the Knife
TTITLE15=I left my heart in San Francisco
TTITLE16=A nightingale sang in Berkeley Square
TTITLE17=You'll never know
TTITLE18=Release Me
TTITLE19=Softly as I leave
EXTD=
EXTT0=
EXTT1=
EXTT2=
EXTT3=
EXTT4=
EXTT5=
EXTT6=
EXTT7=
EXTT8=
EXTT9=
EXTT10=
EXTT11=
EXTT12=
EXTT13=
EXTT14=
EXTT15=
EXTT16=
EXTT17=
EXTT18=
EXTT19=
PLAYORDER=
